HIERARCHY
ROOT Hips
{
	OFFSET -0.001795 -0.223333 0.028219
	CHANNELS 6 Xposition Yposition Zposition Zrotation Yrotation Xrotation 
	JOINT LeftUpLeg
	{
		OFFSET 0.069520 -0.091406 -0.006815
		CHANNELS 3 Zrotation Yrotation Xrotation
		JOINT LeftLeg
		{
			OFFSET 0.034277 -0.375199 -0.004496
			CHANNELS 3 Zrotation Yrotation Xrotation
			JOINT LeftFoot
			{
				OFFSET -0.013596 -0.397961 -0.043693
				CHANNELS 3 Zrotation Yrotation Xrotation
				JOINT LeftToe
				{
					OFFSET 0.026358 -0.055791 0.119288
					CHANNELS 3 Zrotation Yrotation Xrotation
					End Site
					{
						OFFSET 0.000000 0.000000 0.000000
					}
				}
			}
		}
	}
	JOINT RightUpLeg
	{
		OFFSET -0.067670 -0.090522 -0.004320
		CHANNELS 3 Zrotation Yrotation Xrotation
		JOINT RightLeg
		{
			OFFSET -0.038290 -0.382569 -0.008850
			CHANNELS 3 Zrotation Yrotation Xrotation
			JOINT RightFoot
			{
				OFFSET 0.015774 -0.398415 -0.042312
				CHANNELS 3 Zrotation Yrotation Xrotation
				JOINT RightToe
				{
					OFFSET -0.025372 -0.048144 0.123348
					CHANNELS 3 Zrotation Yrotation Xrotation
					End Site
					{
						OFFSET 0.000000 0.000000 0.000000
					}
				}
			}
		}
	}
	JOINT Spine
	{
		OFFSET -0.002533 0.108963 -0.026696
		CHANNELS 3 Zrotation Yrotation Xrotation
		JOINT Spine1
		{
			OFFSET 0.005487 0.135180 0.001092
			CHANNELS 3 Zrotation Yrotation Xrotation
			JOINT Spine2
			{
				OFFSET 0.001457 0.052922 0.025425
				CHANNELS 3 Zrotation Yrotation Xrotation
				JOINT Neck
				{
					OFFSET -0.002778 0.213870 -0.042857
					CHANNELS 3 Zrotation Yrotation Xrotation
					JOINT Head
					{
						OFFSET 0.005152 0.064970 0.051349
						CHANNELS 3 Zrotation Yrotation Xrotation
						End Site
						{
							OFFSET 0.000000 0.000000 0.000000
						}
					}
				}
				JOINT LeftShoulder
				{
					OFFSET 0.078845 0.121749 -0.034090
					CHANNELS 3 Zrotation Yrotation Xrotation
					JOINT LeftArm
					{
						OFFSET 0.090977 0.030469 -0.008868
						CHANNELS 3 Zrotation Yrotation Xrotation
						JOINT LeftForeArm
						{
							OFFSET 0.259612 -0.012772 -0.027456
							CHANNELS 3 Zrotation Yrotation Xrotation
							JOINT LeftHand
							{
								OFFSET 0.249234 0.008986 -0.001171
								CHANNELS 3 Zrotation Yrotation Xrotation
								End Site
								{
									OFFSET 0.000000 0.000000 0.000000
								}
							}
						}
					}
				}
				JOINT RightShoulder
				{
					OFFSET -0.081759 0.118833 -0.038615
					CHANNELS 3 Zrotation Yrotation Xrotation
					JOINT RightArm
					{
						OFFSET -0.096012 0.032551 -0.009143
						CHANNELS 3 Zrotation Yrotation Xrotation
						JOINT RightForeArm
						{
							OFFSET -0.253742 -0.013329 -0.021401
							CHANNELS 3 Zrotation Yrotation Xrotation
							JOINT RightHand
							{
								OFFSET -0.255298 0.007772 -0.005559
								CHANNELS 3 Zrotation Yrotation Xrotation
								End Site
								{
									OFFSET 0.000000 0.000000 0.000000
								}
							}
						}
					}
				}
			}
		}
	}
}
MOTION
Frames: 12
Frame Time: 0.050000
0.000000 0.945739 0.000000 -1.400360 3.071573 7.306317 5.126696 -0.378254 -4.117731 0.979235 0.225858 -7.897099 1.970152 8.089122 11.799786 0.000000 0.000000 0.000000 -4.101699 0.586869 -6.785593 -0.694887 0.040726 -0.771128 -2.805552 -9.276259 8.840520 0.000000 0.000000 0.000000 2.293961 0.171726 -4.289765 -0.410861 0.273817 -2.718319 -1.718844 -0.104387 3.223996 0.708354 0.236039 -8.193918 0.000000 0.000000 0.000000 -17.256476 4.215328 -4.256034 -52.263549 -5.589569 -3.574168 -13.691210 -20.407550 3.122795 0.000000 0.000000 0.000000 15.837584 -6.607480 -4.486792 58.422922 4.555905 -3.198344 9.683129 19.982099 2.250472 0.000000 0.000000 0.000000 
-0.000053 0.944949 0.001277 -1.521729 2.170262 7.666222 4.427317 -0.356694 -3.793465 2.562882 0.214610 -8.627809 2.308485 8.526498 11.749437 0.000000 0.000000 0.000000 -4.270455 0.605631 -6.957446 -0.277525 -0.003733 -0.801638 -2.153689 -7.953207 8.494839 0.000000 0.000000 0.000000 2.847491 0.191826 -4.598778 -1.271604 0.648687 -2.869846 -1.344076 0.108180 2.706297 -1.203145 1.524368 -8.229178 0.000000 0.000000 0.000000 -18.210613 6.149690 -5.355481 -51.297041 -4.885114 -3.751035 -14.898454 -20.680443 3.398633 0.000000 0.000000 0.000000 14.990989 -7.101768 -4.686248 59.547036 3.438010 -3.740660 9.662200 21.121073 2.369318 0.000000 0.000000 0.000000 
-0.000119 0.944721 0.002157 -0.988745 2.972197 7.690043 4.020406 -0.358173 -3.761124 2.497850 0.203167 -8.389771 1.562003 7.458519 11.922164 0.000000 0.000000 0.000000 -4.595927 0.588543 -6.940657 -0.397661 0.014213 -0.679112 -3.198921 -10.003705 8.410600 0.000000 0.000000 0.000000 2.360923 0.177139 -4.437451 -0.908177 0.525467 -4.097355 -1.955999 -0.677685 3.161468 -1.524053 1.677030 -7.237619 0.000000 0.000000 0.000000 -17.633283 5.390330 -4.806143 -51.751250 -4.252810 -4.103638 -14.435641 -20.081774 3.227371 0.000000 0.000000 0.000000 16.363269 -6.450486 -4.595555 58.286520 2.851348 -4.024864 9.167621 21.188269 2.292332 0.000000 0.000000 0.000000 
-0.000228 0.944592 0.002876 -1.135899 2.738250 8.053755 3.891981 -0.386017 -4.225293 3.117655 0.181965 -8.316445 1.474361 7.271149 11.845313 0.000000 0.000000 0.000000 -4.576414 0.638515 -7.666137 -0.173768 0.007577 -0.272054 -3.212795 -10.044533 8.362153 0.000000 0.000000 0.000000 2.385937 0.182323 -4.556368 -1.551084 0.790715 -3.839671 -0.960735 -1.609339 2.028457 -2.704195 2.404580 -6.877906 0.000000 0.000000 0.000000 -17.471432 6.938664 -5.336165 -52.619506 -4.223386 -4.104066 -14.158256 -19.934042 3.202530 0.000000 0.000000 0.000000 15.265598 -6.642187 -4.773018 58.554200 2.990450 -3.867342 10.210604 20.787225 2.341724 0.000000 0.000000 0.000000 
-0.000410 0.944755 0.003372 -0.879335 3.295067 7.925727 3.595411 -0.365920 -3.873511 3.095721 0.204000 -8.699843 0.869610 6.446852 12.141930 0.000000 0.000000 0.000000 -4.806417 0.609614 -7.413127 -0.286702 0.004336 -0.647552 -3.561373 -10.735223 8.537963 0.000000 0.000000 0.000000 1.965444 0.181650 -4.584077 -1.094353 0.599875 -3.772632 -1.172511 -2.077996 2.069935 -3.187233 2.742433 -7.057434 0.000000 0.000000 0.000000 -17.592533 6.746995 -5.236619 -52.647262 -4.209302 -4.120188 -14.239705 -19.749784 3.191041 0.000000 0.000000 0.000000 15.036119 -6.533235 -4.697428 58.684399 3.478706 -3.645279 10.223779 20.124082 2.255129 0.000000 0.000000 0.000000 
-0.000566 0.945042 0.003611 -0.758302 3.143809 8.028504 3.382599 -0.366124 -3.901088 3.323002 0.197855 -8.689761 1.008579 6.655727 12.143569 0.000000 0.000000 0.000000 -4.939626 0.617136 -7.581315 -0.407319 0.019654 -0.575995 -3.484363 -10.630348 8.767362 0.000000 0.000000 0.000000 1.651389 0.184835 -4.660197 -1.103952 0.604360 -3.843461 -0.842556 -2.310936 1.963351 -3.491317 2.924527 -6.666592 0.000000 0.000000 0.000000 -17.613204 7.357635 -5.481660 -53.067286 -4.187556 -4.158212 -13.814762 -19.528032 3.096711 0.000000 0.000000 0.000000 14.616217 -6.228912 -4.542590 58.904825 3.988398 -3.407772 9.941249 19.410617 2.104195 0.000000 0.000000 0.000000 
-0.000779 0.945154 0.003563 -0.774423 3.102600 8.024812 3.308467 -0.367833 -3.940034 3.439238 0.187941 -8.574482 0.900909 6.541827 12.352802 0.000000 0.000000 0.000000 -4.849042 0.622541 -7.623051 -0.481676 0.028589 -0.546225 -3.296396 -10.242935 8.704869 0.000000 0.000000 0.000000 1.520589 0.181079 -4.590709 -1.002272 0.557746 -3.723866 -0.792304 -2.502946 1.848847 -3.355545 2.826667 -7.025466 0.000000 0.000000 0.000000 -17.429710 7.386599 -5.421979 -53.214239 -4.063132 -4.215987 -13.804588 -19.454672 3.091541 0.000000 0.000000 0.000000 14.581718 -5.902801 -4.418469 58.995681 4.291877 -3.257409 9.566937 19.082609 1.997953 0.000000 0.000000 0.000000 
-0.000969 0.945422 0.003339 -0.873609 2.833583 8.149555 3.211403 -0.375596 -4.074745 3.778961 0.172563 -8.473798 1.041024 6.702076 12.237805 0.000000 0.000000 0.000000 -4.760279 0.642010 -7.836975 -0.420995 0.034278 -0.257945 -3.242833 -10.130418 8.543183 0.000000 0.000000 0.000000 1.522415 0.181069 -4.582668 -1.064289 0.579287 -3.624650 -0.664790 -2.350928 1.629396 -3.421734 2.855919 -6.493900 0.000000 0.000000 0.000000 -17.394561 7.433108 -5.440220 -53.254669 -4.228443 -4.125317 -13.616662 -19.536514 3.071536 0.000000 0.000000 0.000000 14.599780 -5.809685 -4.384681 59.003928 4.674251 -3.044906 9.395086 18.541753 1.906459 0.000000 0.000000 0.000000 
-0.001127 0.945868 0.003078 -1.000346 2.711539 8.210630 3.251284 -0.382201 -4.178981 3.888913 0.161858 -8.356983 0.984848 6.550255 12.078840 0.000000 0.000000 0.000000 -4.631581 0.659233 -8.027078 -0.332531 0.029734 -0.140540 -3.089251 -9.806541 8.427300 0.000000 0.000000 0.000000 1.519967 0.176838 -4.495629 -1.018307 0.558441 -3.630007 -0.591479 -2.333878 1.546821 -3.399233 2.832935 -6.363902 0.000000 0.000000 0.000000 -17.084137 7.396964 -5.355823 -53.546352 -4.611561 -3.969846 -13.673703 -19.329787 3.049324 0.000000 0.000000 0.000000 14.597097 -5.803842 -4.394121 58.944629 4.991823 -2.876292 9.200711 18.270512 1.844446 0.000000 0.000000 0.000000 
-0.001273 0.946318 0.002870 -1.058334 2.518811 8.336873 3.155510 -0.388313 -4.277530 4.025006 0.157119 -8.345130 1.078621 6.670517 12.047735 0.000000 0.000000 0.000000 -4.588205 0.678042 -8.265336 -0.267373 0.024109 -0.106024 -3.029561 -9.703490 8.429557 0.000000 0.000000 0.000000 1.497660 0.181632 -4.593094 -1.047996 0.567478 -3.539665 -0.516666 -2.258556 1.548608 -3.591387 2.962504 -6.252710 0.000000 0.000000 0.000000 -17.009592 7.397100 -5.332756 -53.492371 -4.922483 -3.827893 -13.963905 -19.409446 3.115883 0.000000 0.000000 0.000000 14.666840 -5.694631 -4.362887 58.734212 5.324588 -2.699018 9.128974 18.083441 1.810427 0.000000 0.000000 0.000000 
-0.001389 0.946769 0.002736 -1.072486 2.348371 8.398110 3.199358 -0.389184 -4.293177 4.055870 0.159705 -8.398707 1.110710 6.746128 12.198804 0.000000 0.000000 0.000000 -4.625774 0.685211 -8.366271 -0.178108 0.016279 -0.063385 -3.016182 -9.698660 8.465780 0.000000 0.000000 0.000000 1.444519 0.180368 -4.562118 -1.061716 0.574728 -3.669374 -0.535277 -2.258786 1.699353 -3.558086 2.934189 -6.100661 0.000000 0.000000 0.000000 -17.117158 7.475883 -5.373477 -53.346933 -5.135274 -3.737698 -13.976064 -19.664343 3.166596 0.000000 0.000000 0.000000 14.778037 -5.708619 -4.401113 58.691869 5.614138 -2.569039 9.138316 17.900800 1.789605 0.000000 0.000000 0.000000 
-0.001479 0.947067 0.002670 -1.109521 2.215163 8.488076 3.228302 -0.393725 -4.361970 4.184006 0.161135 -8.474955 1.099175 6.750729 12.333661 0.000000 0.000000 0.000000 -4.603278 0.689060 -8.371521 -0.174053 0.013597 -0.118063 -2.995965 -9.690928 8.568545 0.000000 0.000000 0.000000 1.438987 0.186412 -4.678795 -1.086546 0.581357 -3.542718 -0.557120 -2.177189 1.661543 -3.536311 2.920724 -6.202362 0.000000 0.000000 0.000000 -17.063117 7.399421 -5.328795 -53.144797 -5.422917 -3.592952 -14.297658 -19.580356 3.207011 0.000000 0.000000 0.000000 14.821343 -5.824314 -4.463128 58.571819 5.698625 -2.516373 9.312542 17.960120 1.820580 0.000000 0.000000 0.000000 
